<svg width="32" height="32" viewBox="0 0 32 32" fill="none" xmlns="http://www.w3.org/2000/svg">
<g id="devicon:bootstrap">
<path id="Vector" d="M3.74634 6.92807C3.68709 5.22432 5.01434 3.65332 6.80859 3.65332H25.1936C26.9878 3.65332 28.3151 5.22432 28.2558 6.92807C28.1988 8.56457 28.2728 10.6846 28.8063 12.4131C29.3416 14.1471 30.2441 15.2428 31.7223 15.3838V16.9806C30.2441 17.1216 29.3416 18.2173 28.8063 19.9513C28.2728 21.6798 28.1988 23.7998 28.2558 25.4363C28.3151 27.1401 26.9878 28.7108 25.1936 28.7108H6.80859C5.01434 28.7108 3.68709 27.1398 3.74634 25.4363C3.80334 23.7998 3.72934 21.6798 3.19559 19.9513C2.66059 18.2176 1.75559 17.1216 0.277344 16.9806V15.3838C1.75559 15.2431 2.66059 14.1471 3.19559 12.4131C3.72934 10.6846 3.80309 8.56457 3.74634 6.92807Z" fill="white"/>
<g id="Vector_2" filter="url(#filter0_d_231_2474)">
<path d="M16.7774 22.934C19.6822 22.934 21.4325 21.5117 21.4325 19.1659C21.4325 17.3926 20.1836 16.1089 18.3291 15.9057V15.8318C19.6916 15.6101 20.7608 14.3449 20.7608 12.9318C20.7608 10.9185 19.1712 9.60693 16.749 9.60693H11.2991V22.934H16.7774ZM13.4185 11.2971H16.2381C17.7709 11.2971 18.6414 11.9805 18.6414 13.2181C18.6414 14.5388 17.629 15.2776 15.7934 15.2776H13.4185V11.2971ZM13.4185 21.2438V16.8569H16.2192C18.225 16.8569 19.2658 17.5957 19.2658 19.0365C19.2658 20.4773 18.2535 21.2438 16.3422 21.2438H13.4185Z" fill="#9013FE"/>
</g>
</g>
<defs>
<filter id="filter0_d_231_2474" x="7.36851" y="6.65901" width="17.9947" height="21.1883" filterUnits="userSpaceOnUse" color-interpolation-filters="sRGB">
<feFlood flood-opacity="0" result="BackgroundImageFix"/>
<feColorMatrix in="SourceAlpha" type="matrix" values="0 0 0 0 0 0 0 0 0 0 0 0 0 0 0 0 0 0 127 0" result="hardAlpha"/>
<feOffset dy="0.98264"/>
<feGaussianBlur stdDeviation="1.96528"/>
<feColorMatrix type="matrix" values="0 0 0 0 0 0 0 0 0 0 0 0 0 0 0 0 0 0 0.15 0"/>
<feBlend mode="normal" in2="BackgroundImageFix" result="effect1_dropShadow_231_2474"/>
<feBlend mode="normal" in="SourceGraphic" in2="effect1_dropShadow_231_2474" result="shape"/>
</filter>
</defs>
</svg>
