<svg width="32" height="32" viewBox="0 0 32 32" fill="none" xmlns="http://www.w3.org/2000/svg">
<g id="logos:dotnet" clip-path="url(#clip0_231_2478)">
<path id="Vector" d="M0 0H32V32H0V0Z" fill="#512BD4"/>
<path id="Vector_2" d="M5.70342 20.4444C5.47717 20.4444 5.28492 20.369 5.12654 20.2183C4.96817 20.0636 4.88892 19.8799 4.88892 19.6672C4.88892 19.4507 4.96817 19.2653 5.12642 19.1105C5.28492 18.9559 5.47717 18.8785 5.70342 18.8785C5.93342 18.8785 6.12767 18.9559 6.28604 19.1105C6.44829 19.2653 6.52929 19.4507 6.52929 19.6672C6.52929 19.8799 6.44829 20.0635 6.28604 20.2183C6.12767 20.369 5.93342 20.4444 5.70342 20.4444ZM14.7485 20.3169H13.2779L9.40317 14.2037C9.30643 14.0517 9.22495 13.8905 9.15992 13.7225H9.12592L9.13179 13.7606L9.13717 13.8044L9.14217 13.8535L9.14692 13.908L9.15304 14L9.15829 14.104L9.16267 14.2203L9.16617 14.3488L9.16867 14.4894L9.16992 14.59L9.17117 14.865V20.3167H7.87017V12H9.43704L13.1817 17.9679L13.2742 18.114L13.3338 18.21L13.3848 18.2944L13.4273 18.3673L13.451 18.4095L13.471 18.4465L13.4873 18.4784H13.5098L13.5055 18.4521L13.4975 18.3959L13.49 18.3342L13.4834 18.2671C13.4824 18.2553 13.4814 18.2434 13.4804 18.2315L13.4747 18.1562L13.4697 18.0756L13.4653 17.9894L13.46 17.8501L13.4563 17.6986L13.454 17.5349L13.4533 17.359V12H14.7485V20.3169ZM21.0842 20.3169H16.5307V12H20.9032V13.1716H17.8769V15.5262H20.6657V16.692H17.8769V19.1511H21.0842V20.3169ZM27.5557 13.1716H25.225V20.3169H23.8788V13.1716H21.5538V12H27.5555L27.5557 13.1716Z" fill="white"/>
</g>
<defs>
<clipPath id="clip0_231_2478">
<rect width="32" height="32" fill="white"/>
</clipPath>
</defs>
</svg>
