<svg width="32" height="32" viewBox="0 0 32 32" fill="none" xmlns="http://www.w3.org/2000/svg">
<g id="skill-icons:netlify-light" clip-path="url(#clip0_231_2515)">
<g id="Group">
<path id="Vector" d="M21.5984 12.1757L21.5893 12.1718C21.5841 12.1698 21.5789 12.1679 21.5742 12.1633C21.5667 12.1553 21.5611 12.1457 21.558 12.1351C21.5548 12.1246 21.5541 12.1135 21.556 12.1027L22.06 9.0213L24.4236 11.3854L21.9655 12.4313C21.9587 12.434 21.9514 12.4354 21.944 12.4352H21.9342C21.9294 12.4321 21.925 12.4284 21.9211 12.4242C21.8296 12.3223 21.7203 12.2381 21.5984 12.1757ZM25.0266 11.9879L27.5539 14.5151C28.0788 15.0407 28.3415 15.3027 28.4374 15.6066C28.4516 15.6516 28.4634 15.6966 28.4725 15.7428L22.433 13.1851L22.4233 13.1811C22.3991 13.1713 22.371 13.1602 22.371 13.1354C22.371 13.1107 22.3998 13.0989 22.4239 13.0892L22.4316 13.0859L25.0266 11.9879ZM28.3695 16.5539C28.2391 16.7991 27.9849 17.0534 27.5545 17.4843L24.7052 20.3329L21.0201 19.5656L21.0005 19.5617C20.9679 19.5564 20.9334 19.5506 20.9334 19.5212C20.9193 19.3692 20.8742 19.2217 20.8007 19.0879C20.7272 18.9541 20.627 18.8368 20.5063 18.7434C20.4913 18.7284 20.4953 18.7049 20.4998 18.6834C20.4998 18.6802 20.4998 18.6769 20.5011 18.6743L21.1941 14.4193L21.1968 14.4049C21.2008 14.3723 21.2065 14.3346 21.2359 14.3346C21.3844 14.3161 21.5278 14.2682 21.6577 14.1938C21.7875 14.1193 21.9013 14.0198 21.9923 13.9009C21.9981 13.8944 22.002 13.8872 22.0099 13.8833C22.0308 13.8736 22.0555 13.8833 22.077 13.8924L28.3689 16.5539H28.3695ZM24.05 20.9882L19.3646 25.6736L20.1666 20.7444L20.1679 20.7378C20.1685 20.7314 20.1699 20.7251 20.1719 20.7189C20.1784 20.7033 20.1952 20.6968 20.2116 20.6903L20.2194 20.6871C20.395 20.6121 20.5503 20.4966 20.6726 20.3499C20.6882 20.3317 20.7071 20.3141 20.7313 20.3108C20.7375 20.3098 20.7439 20.3098 20.7501 20.3108L24.0492 20.9889L24.05 20.9882ZM18.3729 26.6653L17.8447 27.1934L12.006 18.7551L11.9995 18.7459C11.9905 18.7336 11.9808 18.7212 11.9826 18.7068C11.9832 18.6964 11.9897 18.6873 11.997 18.6794L12.0035 18.6711C12.021 18.6449 12.036 18.6188 12.0524 18.5908L12.0654 18.5679L12.0674 18.5661C12.0765 18.5504 12.0849 18.5354 12.1006 18.5269C12.1144 18.5204 12.1331 18.5231 12.1481 18.5263L18.6168 19.8603C18.6349 19.8631 18.652 19.8705 18.6664 19.8818C18.6749 19.8903 18.6767 19.8994 18.6787 19.9098C18.7239 20.0805 18.8078 20.2385 18.9241 20.3714C19.0404 20.5043 19.1858 20.6085 19.349 20.6759C19.3673 20.6851 19.3594 20.7053 19.351 20.7268C19.3468 20.7362 19.3435 20.7461 19.3411 20.7562C19.2596 21.2517 18.5608 25.5144 18.3729 26.6653ZM17.2698 27.7678C16.8805 28.1532 16.651 28.3572 16.3915 28.4394C16.1356 28.5203 15.861 28.5203 15.6051 28.4394C15.3014 28.3429 15.0386 28.0808 14.5138 27.5553L8.65025 21.6918L10.1818 19.3164C10.1883 19.3045 10.1972 19.2941 10.2079 19.2858C10.2241 19.2741 10.2476 19.2793 10.2673 19.2858C10.6188 19.3919 10.9961 19.3728 11.3351 19.2317C11.3527 19.2252 11.3704 19.2207 11.3841 19.2331C11.3909 19.2393 11.397 19.2463 11.4024 19.2539L17.2698 27.7684V27.7678ZM8.08488 21.1264L6.73987 19.7814L9.39612 18.6482C9.4029 18.6452 9.41022 18.6437 9.41763 18.6437C9.43975 18.6437 9.45288 18.6658 9.46463 18.6861C9.49125 18.7271 9.51962 18.7671 9.54937 18.8059L9.55775 18.8164C9.56562 18.8274 9.56037 18.8386 9.55262 18.8491L8.0855 21.1264H8.08488ZM6.1445 19.1861L4.44275 17.4843C4.15325 17.1948 3.94338 16.9849 3.79725 16.8043L8.97163 17.8776L8.99125 17.8808C9.02313 17.8859 9.05838 17.8918 9.05838 17.9218C9.05838 17.9544 9.01988 17.9694 8.98725 17.9818L8.97225 17.9883L6.1445 19.1861ZM3.5 15.9293C3.50593 15.8197 3.52567 15.7112 3.55875 15.6066C3.65512 15.3027 3.91725 15.0407 4.44275 14.5151L6.6205 12.3374C7.62323 13.7926 8.62865 15.246 9.63675 16.6974C9.65425 16.7208 9.67387 16.7469 9.65362 16.7664C9.5585 16.8714 9.46325 16.9862 9.39612 17.1108C9.38883 17.1268 9.37761 17.1407 9.3635 17.1512C9.355 17.1564 9.346 17.1544 9.336 17.1524H9.33475L3.5 15.9287V15.9293ZM7.20337 11.7546L10.1315 8.8263C10.4068 8.94693 11.4082 9.37005 12.304 9.7483C12.9821 10.0352 13.6003 10.2959 13.7945 10.3808C13.8141 10.3886 13.8317 10.3964 13.8401 10.4159C13.8454 10.4277 13.8428 10.4427 13.8401 10.4551C13.7939 10.6664 13.8009 10.886 13.8604 11.094C13.9199 11.302 14.0301 11.492 14.1811 11.6469C14.2007 11.6666 14.1811 11.6944 14.1643 11.7187L14.1551 11.7324L11.182 16.3374C11.1754 16.3504 11.1658 16.3616 11.1539 16.3701C11.1383 16.3798 11.1161 16.3753 11.0979 16.3707C10.9822 16.3404 10.8633 16.3242 10.7437 16.3224C10.6369 16.3224 10.5207 16.3421 10.4035 16.3636H10.4028C10.3898 16.3656 10.378 16.3681 10.3676 16.3603C10.3561 16.3509 10.3462 16.3397 10.3383 16.3271L7.20337 11.7546ZM10.723 8.23493L14.5138 4.44418C15.0386 3.9193 15.3014 3.65668 15.6051 3.56068C15.861 3.47977 16.1356 3.47977 16.3915 3.56068C16.6954 3.65655 16.9581 3.91943 17.483 4.44418L18.3045 5.26568L15.6084 9.44118C15.6017 9.4533 15.5927 9.46394 15.5817 9.47243C15.5654 9.48368 15.5426 9.47905 15.523 9.47243C15.3104 9.40792 15.0853 9.39617 14.8672 9.43821C14.6491 9.48024 14.4445 9.57479 14.2711 9.71368C14.2535 9.73193 14.2275 9.72155 14.2052 9.7118C13.8532 9.55855 11.1147 8.4013 10.723 8.23493ZM18.877 5.83818L21.3662 8.32755L20.7665 12.0427V12.0524C20.7659 12.0609 20.7641 12.0693 20.7612 12.0773C20.7547 12.0903 20.7416 12.0929 20.7286 12.0968C20.6004 12.1356 20.4796 12.1958 20.3714 12.2748C20.3667 12.2781 20.3623 12.2819 20.3582 12.2859C20.3511 12.2937 20.344 12.3009 20.3323 12.3022C20.3227 12.3025 20.3131 12.301 20.3041 12.2977L16.5107 10.6859L16.5036 10.6826C16.4795 10.6728 16.4509 10.6611 16.4509 10.6363C16.4285 10.4249 16.3595 10.2211 16.2488 10.0397C16.2305 10.0097 16.2103 9.97843 16.2259 9.9478L18.877 5.83818ZM16.3132 11.4494L19.8692 12.9556C19.8889 12.9647 19.9104 12.9731 19.9189 12.9933C19.9222 13.0054 19.9222 13.0183 19.9189 13.0304C19.9067 13.0868 19.9002 13.1443 19.8993 13.2019V13.3017C19.8993 13.3266 19.8739 13.3369 19.8504 13.3467L19.8433 13.3493C19.2799 13.5899 11.9344 16.7222 11.9233 16.7222C11.9123 16.7222 11.9005 16.7222 11.8894 16.7111C11.8699 16.6916 11.8894 16.6642 11.9069 16.6393C11.9101 16.6351 11.9131 16.6307 11.9161 16.6263L14.8384 12.1013L14.8436 12.0936C14.8606 12.0661 14.8801 12.0356 14.9114 12.0356L14.9408 12.0401C15.0072 12.0492 15.066 12.0577 15.1252 12.0577C15.5686 12.0577 15.9794 11.8419 16.2271 11.4728C16.2331 11.463 16.2406 11.4542 16.2494 11.4468C16.267 11.4337 16.293 11.4404 16.3132 11.4494ZM12.2408 17.4381L20.2475 14.0236C20.2475 14.0236 20.2593 14.0236 20.2703 14.0346C20.314 14.0783 20.3511 14.1076 20.387 14.1349L20.4046 14.1461C20.4209 14.1552 20.4373 14.1657 20.4385 14.1826C20.4385 14.1891 20.4385 14.1931 20.4373 14.1989L19.7512 18.4122L19.7486 18.4291C19.7441 18.4617 19.7395 18.4989 19.7089 18.4989C19.526 18.5112 19.3489 18.5679 19.1929 18.6641C19.0369 18.7603 18.9067 18.8932 18.8137 19.0512L18.8104 19.0563C18.8013 19.0713 18.7929 19.0857 18.7779 19.0936C18.7641 19.1001 18.7465 19.0974 18.7323 19.0942L12.3471 17.7771C12.3406 17.7758 12.2479 17.4387 12.2408 17.4381Z" fill="white"/>
</g>
</g>
<defs>
<clipPath id="clip0_231_2515">
<rect width="32" height="32" fill="white"/>
</clipPath>
</defs>
</svg>
