<svg width="32" height="32" viewBox="0 0 32 32" fill="none" xmlns="http://www.w3.org/2000/svg">
<g id="tabler:file-type-sql">
<g id="Group">
<path id="Vector" d="M18.6667 4V9.33333C18.6667 9.68695 18.8072 10.0261 19.0573 10.2761C19.3073 10.5262 19.6465 10.6667 20.0001 10.6667H25.3334" stroke="white" stroke-width="2" stroke-linecap="round" stroke-linejoin="round"/>
<path id="Vector_2" d="M18.6667 4V9.33333C18.6667 9.68696 18.8072 10.0261 19.0573 10.2761C19.3073 10.5262 19.6465 10.6667 20.0001 10.6667H25.3334M6.66675 27C6.66675 27.552 7.11475 28 7.66675 28H9.33341C9.68704 28 10.0262 27.8595 10.2762 27.6095C10.5263 27.3594 10.6667 27.0203 10.6667 26.6667V25.3333C10.6667 24.9797 10.5263 24.6406 10.2762 24.3905C10.0262 24.1405 9.68704 24 9.33341 24H8.00008C7.64646 24 7.30732 23.8595 7.05727 23.6095C6.80722 23.3594 6.66675 23.0203 6.66675 22.6667V21.3333C6.66675 20.9797 6.80722 20.6406 7.05727 20.3905C7.30732 20.1405 7.64646 20 8.00008 20H9.66675C9.93196 20 10.1863 20.1054 10.3739 20.2929C10.5614 20.4804 10.6667 20.7348 10.6667 21" stroke="white" stroke-width="2" stroke-linecap="round" stroke-linejoin="round"/>
<path id="Vector_3" d="M6.66675 16V6.66667C6.66675 5.95942 6.9477 5.28115 7.4478 4.78105C7.94789 4.28095 8.62617 4 9.33341 4H18.6667L25.3334 10.6667V16M24.0001 20V28H26.6667M18.6667 26.6667L20.6667 28.6667M17.3334 20C18.0407 20 18.7189 20.281 19.219 20.781C19.7191 21.2811 20.0001 21.9594 20.0001 22.6667V25.3333C20.0001 26.0406 19.7191 26.7189 19.219 27.2189C18.7189 27.719 18.0407 28 17.3334 28C16.6262 28 15.9479 27.719 15.4478 27.2189C14.9477 26.7189 14.6667 26.0406 14.6667 25.3333V22.6667C14.6667 21.9594 14.9477 21.2811 15.4478 20.781C15.9479 20.281 16.6262 20 17.3334 20Z" stroke="white" stroke-width="2" stroke-linecap="round" stroke-linejoin="round"/>
</g>
</g>
</svg>
