<svg width="32" height="32" viewBox="0 0 32 32" fill="none" xmlns="http://www.w3.org/2000/svg">
<g id="devicon:vercel-wordmark" clip-path="url(#clip0_231_2503)">
<g id="Clip path group">
<mask id="mask0_231_2503" style="mask-type:luminance" maskUnits="userSpaceOnUse" x="3" y="0" width="27" height="23">
<g id="deviconVercelWordmark0">
<path id="Vector" d="M3.86328 0.0517578H29.6513V22.3428H3.86328V0.0517578Z" fill="white"/>
</g>
</mask>
<g mask="url(#mask0_231_2503)">
<g id="Group">
<path id="Vector_2" d="M16.754 0.0537109L29.6435 22.3427H3.86353L16.754 0.0537109Z" fill="white"/>
</g>
</g>
</g>
<g id="Clip path group_2">
<mask id="mask1_231_2503" style="mask-type:luminance" maskUnits="userSpaceOnUse" x="0" y="24" width="32" height="8">
<g id="deviconVercelWordmark1">
<path id="Vector_3" d="M0 24.4824H32V31.9999H0V24.4824Z" fill="white"/>
</g>
</mask>
<g mask="url(#mask1_231_2503)">
<g id="Group_2">
<path id="Vector_4" d="M10.4432 26.172C8.76372 26.172 7.55272 27.2715 7.55272 28.919C7.55272 30.5675 8.91397 31.666 10.5947 31.666C11.6095 31.666 12.504 31.2627 13.0575 30.584L11.8945 29.909C11.587 30.247 11.12 30.4432 10.5945 30.4432C9.86622 30.4432 9.24697 30.0615 9.01748 29.4512H13.2802C13.3135 29.2802 13.333 29.1037 13.333 28.918C13.333 27.2715 12.124 26.172 10.4432 26.172ZM9.00572 28.3847C9.19522 27.7762 9.71572 27.3935 10.4432 27.3935C11.1717 27.3935 11.6915 27.7762 11.8807 28.3847H9.00572ZM8.66122 24.4942L4.44622 31.8182L0.229474 24.4942H1.81047L4.44547 29.0712L7.07897 24.4942H8.66122ZM-5.58603 23.7305L0.035224 33.497H-11.2073L-5.58603 23.7305ZM19.4482 28.919C19.4482 29.835 20.045 30.4452 20.9697 30.4452C21.5967 30.4452 22.0665 30.1592 22.3085 29.6942L23.4765 30.37C22.9932 31.1787 22.086 31.666 20.9697 31.666C19.289 31.666 18.079 30.5675 18.079 28.919C18.079 27.2715 19.29 26.1717 20.9697 26.1717C22.086 26.1717 22.9912 26.6592 23.4765 27.4677L22.3085 28.1435C22.0665 27.6785 21.5967 27.3935 20.9697 27.3935C20.046 27.3935 19.4482 28.004 19.4482 28.919ZM31.995 24.494V31.5127H30.626V24.4942L31.995 24.494ZM26.8232 26.172C25.1435 26.172 23.9325 27.2715 23.9325 28.919C23.9325 30.5675 25.296 31.666 26.9755 31.666C27.9902 31.666 28.8847 31.2627 29.4385 30.584L28.2745 29.909C27.967 30.247 27.5 30.4432 26.9755 30.4432C26.247 30.4432 25.628 30.0615 25.3975 29.4512H29.66C29.6932 29.2802 29.7137 29.1037 29.7137 28.918C29.7137 27.2715 28.5037 26.172 26.8232 26.172ZM25.3857 28.3847C25.5762 27.7762 26.0947 27.3935 26.8232 27.3935C27.5517 27.3935 28.0722 27.7762 28.2607 28.3847H25.3857ZM17.6232 26.3252V27.8037C17.4654 27.7558 17.3016 27.7306 17.1367 27.7287C16.253 27.7287 15.6152 28.3387 15.6152 29.255V31.5125H14.246V26.325H15.6152V27.7285C15.6152 26.953 16.514 26.3252 17.6232 26.3252Z" fill="white"/>
</g>
</g>
</g>
</g>
<defs>
<clipPath id="clip0_231_2503">
<rect width="32" height="32" fill="white"/>
</clipPath>
</defs>
</svg>
